<svg width="60" height="66" viewBox="0 0 60 66" fill="none" xmlns="http://www.w3.org/2000/svg">
<g filter="url(#filter0_d_261_1919)">
<path fill-rule="evenodd" clip-rule="evenodd" d="M33.8185 45.6359C43.0377 43.8536 50 35.7399 50 26C50 14.9543 41.0457 6 30 6C18.9543 6 10 14.9543 10 26C10 35.7399 16.9623 43.8536 26.1815 45.6359L30 52L33.8185 45.6359Z" fill="white"/>
</g>
<path d="M40.5 24.5H37.8103L33.75 20.4397C33.6112 20.2998 33.446 20.1889 33.264 20.1134C33.082 20.0379 32.8867 19.9994 32.6897 20H22.1512C21.9049 20.0005 21.6624 20.0616 21.4453 20.178C21.2281 20.2944 21.043 20.4626 20.9062 20.6675L18.1256 24.8338C18.0439 24.9572 18.0002 25.102 18 25.25V29.75C18 30.1478 18.158 30.5294 18.4393 30.8107C18.7206 31.092 19.1022 31.25 19.5 31.25H21.0938C21.259 31.8953 21.6343 32.4673 22.1605 32.8757C22.6867 33.2842 23.3339 33.5059 24 33.5059C24.6661 33.5059 25.3133 33.2842 25.8395 32.8757C26.3657 32.4673 26.741 31.8953 26.9062 31.25H33.0938C33.259 31.8953 33.6343 32.4673 34.1605 32.8757C34.6867 33.2842 35.3339 33.5059 36 33.5059C36.6661 33.5059 37.3133 33.2842 37.8395 32.8757C38.3657 32.4673 38.741 31.8953 38.9062 31.25H40.5C40.8978 31.25 41.2794 31.092 41.5607 30.8107C41.842 30.5294 42 30.1478 42 29.75V26C42 25.6022 41.842 25.2207 41.5607 24.9393C41.2794 24.658 40.8978 24.5 40.5 24.5ZM22.1512 21.5H32.6897L35.6897 24.5H20.1562L22.1512 21.5ZM24 32C23.7033 32 23.4133 31.912 23.1666 31.7472C22.92 31.5824 22.7277 31.3481 22.6142 31.074C22.5006 30.7999 22.4709 30.4983 22.5288 30.2074C22.5867 29.9164 22.7296 29.6491 22.9393 29.4393C23.1491 29.2296 23.4164 29.0867 23.7074 29.0288C23.9983 28.971 24.2999 29.0007 24.574 29.1142C24.8481 29.2277 25.0824 29.42 25.2472 29.6667C25.412 29.9133 25.5 30.2033 25.5 30.5C25.5 30.8978 25.342 31.2794 25.0607 31.5607C24.7794 31.842 24.3978 32 24 32ZM36 32C35.7033 32 35.4133 31.912 35.1666 31.7472C34.92 31.5824 34.7277 31.3481 34.6142 31.074C34.5006 30.7999 34.4709 30.4983 34.5288 30.2074C34.5867 29.9164 34.7296 29.6491 34.9393 29.4393C35.1491 29.2296 35.4164 29.0867 35.7074 29.0288C35.9983 28.971 36.2999 29.0007 36.574 29.1142C36.8481 29.2277 37.0824 29.42 37.2472 29.6667C37.412 29.9133 37.5 30.2033 37.5 30.5C37.5 30.8978 37.342 31.2794 37.0607 31.5607C36.7794 31.842 36.3978 32 36 32ZM40.5 29.75H38.9062C38.741 29.1047 38.3657 28.5327 37.8395 28.1243C37.3133 27.7158 36.6661 27.4941 36 27.4941C35.3339 27.4941 34.6867 27.7158 34.1605 28.1243C33.6343 28.5327 33.259 29.1047 33.0938 29.75H26.9062C26.741 29.1047 26.3657 28.5327 25.8395 28.1243C25.3133 27.7158 24.6661 27.4941 24 27.4941C23.3339 27.4941 22.6867 27.7158 22.1605 28.1243C21.6343 28.5327 21.259 29.1047 21.0938 29.75H19.5V26H40.5V29.75Z" fill="#3563E9"/>
<defs>
<filter id="filter0_d_261_1919" x="0" y="0" width="60" height="66" filterUnits="userSpaceOnUse" color-interpolation-filters="sRGB">
<feFlood flood-opacity="0" result="BackgroundImageFix"/>
<feColorMatrix in="SourceAlpha" type="matrix" values="0 0 0 0 0 0 0 0 0 0 0 0 0 0 0 0 0 0 127 0" result="hardAlpha"/>
<feOffset dy="4"/>
<feGaussianBlur stdDeviation="5"/>
<feComposite in2="hardAlpha" operator="out"/>
<feColorMatrix type="matrix" values="0 0 0 0 0.0705882 0 0 0 0 0.0705882 0 0 0 0 0.0705882 0 0 0 0.1 0"/>
<feBlend mode="normal" in2="BackgroundImageFix" result="effect1_dropShadow_261_1919"/>
<feBlend mode="normal" in="SourceGraphic" in2="effect1_dropShadow_261_1919" result="shape"/>
</filter>
</defs>
</svg>
