<svg width="14" height="16" viewBox="0 0 14 16" fill="none" xmlns="http://www.w3.org/2000/svg">
<path fill-rule="evenodd" clip-rule="evenodd" d="M7 0C7.26522 0 7.51957 0.105357 7.70711 0.292893L11.7071 4.29289C11.8946 4.48043 12 4.73478 12 5C12 5.55228 11.5523 6 11 6H7C6.48716 6 6.06449 5.61396 6.00673 5.11662L6 5L5.999 2H3C2.44772 2 2 2.44772 2 3V13C2 13.5128 2.38604 13.9355 2.88338 13.9933L3 14C3.55228 14 4 14.4477 4 15C4 15.5128 3.61396 15.9355 3.11662 15.9933L3 16C1.34315 16 0 14.6569 0 13V3C0 1.34315 1.34315 0 3 0H7ZM10 8C10.5523 8 11 8.44771 11 9V11H13C13.5523 11 14 11.4477 14 12C14 12.5523 13.5523 13 13 13H11V15C11 15.5523 10.5523 16 10 16C9.44771 16 9 15.5523 9 15V13H7C6.44772 13 6 12.5523 6 12C6 11.4477 6.44772 11 7 11H9V9C9 8.44771 9.44771 8 10 8Z" fill="#A0A0A0"/>
</svg>
