<svg width="21" height="20" viewBox="0 0 21 20" fill="none" xmlns="http://www.w3.org/2000/svg">
<path fill-rule="evenodd" clip-rule="evenodd" d="M8.79289 4.29289L10.7929 2.29289C11.1834 1.90237 11.8166 1.90237 12.2071 2.29289C12.5676 2.65338 12.5953 3.22061 12.2903 3.6129L12.2071 3.70711L11.795 4.11955C15.0423 4.72694 17.5 7.57646 17.5 11C17.5 14.866 14.366 18 10.5 18C6.63401 18 3.5 14.866 3.5 11C3.5 9.94933 3.73232 8.92963 4.17401 7.99975C4.41097 7.50088 5.00748 7.28856 5.50634 7.52552C6.00521 7.76248 6.21753 8.35899 5.98057 8.85785C5.66558 9.521 5.5 10.2478 5.5 11C5.5 13.7614 7.73858 16 10.5 16C13.2614 16 15.5 13.7614 15.5 11C15.5 8.84177 14.1326 7.00291 12.2168 6.30255C12.5976 6.69468 12.5942 7.32006 12.2071 7.70711C11.8466 8.06759 11.2794 8.09532 10.8871 7.7903L10.7929 7.70711L8.79289 5.70711C8.43241 5.34662 8.40468 4.77939 8.7097 4.3871L8.79289 4.29289L10.7929 2.29289L8.79289 4.29289Z" fill="#A0A0A0"/>
</svg>
