<svg width="48" height="48" viewBox="0 0 48 48" fill="none" xmlns="http://www.w3.org/2000/svg">
<path d="M22.3202 44.8111C20.5428 45.9555 18.4273 46.4571 16.3252 46.2326C14.2233 46.008 12.2614 45.071 10.7659 43.5768L9.46302 42.2739C8.88517 41.6897 8.56104 40.9015 8.56104 40.0796C8.56104 39.2582 8.88517 38.4696 9.46302 37.8854L14.9487 32.434C15.527 31.8582 16.3098 31.535 17.1259 31.535C17.9419 31.535 18.7247 31.8582 19.303 32.434C19.8872 33.0118 20.6757 33.336 21.4973 33.336C22.319 33.336 23.1075 33.0118 23.6916 32.434L32.4345 23.6911C33.0123 23.107 33.3365 22.3185 33.3365 21.4968C33.3365 20.6752 33.0123 19.8867 32.4345 19.3025C31.8587 18.7242 31.5354 17.9414 31.5354 17.1254C31.5354 16.3094 31.8587 15.5265 32.4345 14.9482L37.7143 9.46254C38.2985 8.88465 39.0871 8.56055 39.9086 8.56055C40.7304 8.56055 41.519 8.88465 42.1029 9.46254L43.4057 10.7654C44.9267 12.2398 45.8959 14.1912 46.1517 16.294C46.4078 18.3967 45.9347 20.5236 44.8115 22.3197C38.8331 31.1955 31.196 38.8327 22.3202 44.8111Z" stroke="#3563E9" stroke-width="2" stroke-linecap="round" stroke-linejoin="round"/>
<path d="M24.0001 1.71436C21.0735 1.71436 18.1755 2.29079 15.4717 3.41075C12.7679 4.53072 10.3111 6.17229 8.2417 8.2417C6.17225 10.3111 4.53072 12.7679 3.41075 15.4717C2.29079 18.1755 1.71436 21.0735 1.71436 24.0001" stroke="#3563E9" stroke-width="2" stroke-linecap="round" stroke-linejoin="round"/>
<path d="M23.9999 10.2856C20.3627 10.2856 16.8744 11.7305 14.3025 14.3025C11.7305 16.8744 10.2856 20.3627 10.2856 23.9999" stroke="#3563E9" stroke-width="2" stroke-linecap="round" stroke-linejoin="round"/>
</svg>
