<svg width="48" height="48" viewBox="0 0 48 48" fill="none" xmlns="http://www.w3.org/2000/svg">
<path d="M41.1429 35.9998V42.8569C41.1429 43.7662 40.7816 44.6384 40.1387 45.2813C39.4958 45.9241 38.6236 46.2855 37.7144 46.2855H5.14293C4.2336 46.2855 3.36154 45.9241 2.71856 45.2813C2.07558 44.6384 1.71436 43.7662 1.71436 42.8569V17.1426C1.71436 11.462 6.31944 6.85693 12.0001 6.85693H34.2858V15.4284" stroke="#3563E9" stroke-width="2" stroke-linecap="round" stroke-linejoin="round"/>
<path d="M44.5717 25.7139H32.5717C31.6249 25.7139 30.8574 26.4814 30.8574 27.4282V34.2853C30.8574 35.2319 31.6249 35.9996 32.5717 35.9996H44.5717C45.5183 35.9996 46.286 35.2319 46.286 34.2853V27.4282C46.286 26.4814 45.5183 25.7139 44.5717 25.7139Z" stroke="#3563E9" stroke-width="2" stroke-linecap="round" stroke-linejoin="round"/>
<path d="M41.1429 25.7139V18.8568C41.1429 17.9475 40.7815 17.0754 40.1386 16.4324C39.4958 15.7895 38.6235 15.4282 37.7143 15.4282H34.2857H12" stroke="#3563E9" stroke-width="2" stroke-linecap="round" stroke-linejoin="round"/>
</svg>
