<svg width="176" height="58" viewBox="0 0 176 58" fill="none" xmlns="http://www.w3.org/2000/svg">
<g clip-path="url(#clip0_335_2919)">
<path fill-rule="evenodd" clip-rule="evenodd" d="M50.8448 43.4981V14.4981L25.4224 0L0 14.4981V43.4981L25.4224 57.9961L50.8448 43.4981ZM25.4224 55.3672L2.30508 42.1836V15.8164L25.4224 2.62898L48.5397 15.8126V42.1836L25.4224 55.3672Z" fill="#368EBA"/>
<path fill-rule="evenodd" clip-rule="evenodd" d="M4.61036 23.6413V40.8727L15.0165 46.8073L16.0575 46.1075L14.8521 43.3741L15.0439 38.9281L18.7735 35.8158L30.9955 34.2925L33.2458 31.4316L32.9249 30.0978L27.9077 26.7922L27.1993 24.3759L20.7694 20.9466L20.382 19.2957L18.7735 18.1514L17.0359 19.6746L16.9224 22.4041L16.2258 20.7378L11.5686 20.8809L4.60645 23.6413H4.61036ZM16.5976 47.3292L16.4097 47.5998L16.8206 47.8318L16.5976 47.3253V47.3292ZM24.5303 26.3205L27.1211 26.5332L25.1056 24.8978L24.5303 26.3167V26.3205Z" fill="#368EBA"/>
<path fill-rule="evenodd" clip-rule="evenodd" d="M33.3435 24.3451C32.8309 20.4518 32.416 20.042 28.4751 19.5356C32.416 19.0291 32.8309 18.6193 33.3435 14.7261C33.8562 18.6193 34.2711 19.0291 38.212 19.5356C34.2711 20.042 33.8562 20.4518 33.3435 24.3451Z" fill="#368EBA"/>
<path fill-rule="evenodd" clip-rule="evenodd" d="M8.6332 39.4812C8.36316 37.4321 8.144 37.2156 6.06982 36.9488C8.144 36.6821 8.36316 36.4656 8.6332 34.4165C8.90323 36.4656 9.12239 36.6821 11.1966 36.9488C9.12239 37.2156 8.90323 37.4321 8.6332 39.4812Z" fill="#1EA8CA"/>
<path d="M61.8693 26.8545H56.0264V19.2266H57.807V25.3428H60.934V19.2266H62.7146V25.3428H63.6539V28.3739H61.8693V26.8545Z" fill="#368EBA"/>
<path d="M66.0844 20.6802V22.3504H69.5205V23.5953H66.0844V25.4008H69.7866V26.8545H64.2998V19.2266H69.7396V20.6802H66.0844Z" fill="#368EBA"/>
<path d="M77.551 19.2266V26.8545H75.7704V23.7306H72.6435V26.8545H70.8628V19.2266H72.6435V22.2228H75.7704V19.2266H77.551Z" fill="#368EBA"/>
<path d="M82.1454 20.7498V26.8545H80.3647V20.7498H78.2788V19.2266H84.3331V20.7498H82.1454Z" fill="#368EBA"/>
<path d="M85.061 26.8545V19.2305H88.1293C88.7946 19.2305 89.2094 19.2305 89.3777 19.2421C90.1486 19.2807 90.7044 19.563 91.0448 20.0888C91.2914 20.487 91.4166 21.121 91.4166 21.9986C91.4166 23.0966 91.2014 23.8196 90.767 24.1714C90.4187 24.4536 90.0117 24.6006 89.542 24.616C89.5264 24.616 89.1194 24.6276 88.3171 24.6508H86.8456V26.8584H85.0649L85.061 26.8545ZM86.8417 23.1275H88.3249C88.8807 23.1275 89.2329 23.058 89.3777 22.9226C89.5225 22.7873 89.5968 22.4587 89.5968 21.9406C89.5968 21.5502 89.5694 21.2757 89.5107 21.1133C89.452 20.9509 89.3385 20.8349 89.1703 20.7653C89.0255 20.7112 88.7672 20.6841 88.4071 20.6841H86.8456V23.1314L86.8417 23.1275Z" fill="#368EBA"/>
<path d="M99.819 25.4704H96.7743L96.3477 26.8545H94.4966L96.9386 19.2305H99.6116L102.089 26.8545H100.261L99.8229 25.4704H99.819ZM99.4472 24.1791L98.3005 20.5566L97.1656 24.1791H99.4472Z" fill="#368EBA"/>
<path d="M102.688 26.8545V19.2305H105.756C106.421 19.2305 106.836 19.2305 107.004 19.2421C107.775 19.2807 108.331 19.563 108.671 20.0888C108.918 20.487 109.043 21.121 109.043 21.9986C109.043 23.0966 108.828 23.8196 108.393 24.1714C108.045 24.4536 107.638 24.6006 107.169 24.616C107.153 24.616 106.746 24.6276 105.944 24.6508H104.472V26.8584H102.691L102.688 26.8545ZM104.468 23.1275H105.951C106.507 23.1275 106.859 23.058 107.004 22.9226C107.149 22.7873 107.223 22.4587 107.223 21.9406C107.223 21.5502 107.196 21.2757 107.137 21.1133C107.078 20.9509 106.965 20.8349 106.797 20.7653C106.652 20.7112 106.398 20.6841 106.034 20.6841H104.472V23.1314L104.468 23.1275Z" fill="#368EBA"/>
<path d="M111.701 19.2266V22.2228H112.362L114.632 19.2266H116.796L113.877 22.9535L117.062 26.8545H114.851L112.374 23.7229H111.701V26.8545H109.92V19.2266H111.701Z" fill="#368EBA"/>
<path d="M120.925 20.7498V26.8545H119.144V20.7498H117.062V19.2266H123.112V20.7498H120.925Z" fill="#368EBA"/>
<path d="M130.532 26.8545H128.764V23.5258C128.764 23.0154 128.787 22.2267 128.834 21.1597H128.764L126.482 26.8545H123.844V19.2305H125.594V22.5476C125.594 23.2474 125.57 24.0554 125.523 24.9717H125.594L127.875 19.2343H130.536V26.8584L130.532 26.8545Z" fill="#368EBA"/>
<path d="M136.434 26.8545V24.3183C136.07 24.7977 135.378 25.0374 134.352 25.0374C133.209 25.0374 132.431 24.7629 132.016 24.2139C131.808 23.9317 131.687 23.5528 131.656 23.0811C131.648 22.9961 131.644 22.7757 131.644 22.4161V19.2266H133.425V22.4161C133.425 22.8646 133.519 23.1623 133.706 23.3092C133.894 23.4523 134.29 23.5257 134.892 23.5257C135.534 23.5257 135.949 23.4523 136.141 23.3092C136.332 23.1662 136.43 22.8491 136.43 22.362V19.2304H138.211V26.8545H136.43H136.434Z" fill="#368EBA"/>
<path d="M141.295 20.6802V22.3504H144.731V23.5953H141.295V25.4008H144.997V26.8545H139.51V19.2266H144.95V20.6802H141.295Z" fill="#368EBA"/>
<path d="M150.703 24.0514H152.46V24.2911C152.46 24.902 152.421 25.3466 152.339 25.6211C152.257 25.8995 152.096 26.143 151.857 26.3479C151.564 26.5992 151.204 26.7616 150.781 26.8389C150.527 26.8853 149.967 26.9085 149.102 26.9085C148.371 26.9085 147.85 26.8737 147.541 26.8041C147.232 26.7346 146.934 26.5915 146.649 26.3711C146.234 26.0425 145.983 25.5786 145.909 24.9755C145.838 24.3878 145.803 23.5334 145.803 22.4161C145.803 21.7086 145.854 21.1673 145.952 20.8C146.054 20.4289 146.234 20.1234 146.496 19.8799C146.797 19.5976 147.149 19.4082 147.549 19.3154C147.952 19.2188 148.609 19.1724 149.529 19.1724C150.069 19.1724 150.46 19.1878 150.703 19.2188C150.946 19.2497 151.177 19.3154 151.392 19.4121C151.908 19.6402 152.221 20.077 152.331 20.715C152.37 20.9044 152.398 21.291 152.413 21.8709H150.644C150.636 21.4534 150.593 21.175 150.515 21.0358C150.437 20.9044 150.312 20.8155 150.132 20.7652C149.955 20.715 149.662 20.6918 149.251 20.6918C148.558 20.6918 148.112 20.7884 147.92 20.9779C147.795 21.1093 147.721 21.291 147.69 21.5307C147.658 21.7704 147.643 22.2962 147.643 23.1042C147.643 23.7615 147.654 24.1984 147.682 24.4265C147.709 24.6507 147.764 24.8401 147.85 24.9909C147.936 25.1417 148.077 25.25 148.277 25.3118C148.476 25.3737 148.781 25.4046 149.192 25.4046C149.701 25.4046 150.061 25.3621 150.269 25.277C150.476 25.192 150.609 25.0334 150.664 24.7976C150.687 24.7048 150.699 24.4574 150.699 24.0553L150.703 24.0514Z" fill="#368EBA"/>
<path d="M155.133 19.2266V22.2228H155.795L158.064 19.2266H160.229L157.309 22.9535L160.495 26.8545H158.284L155.806 23.7229H155.133V26.8545H153.353V19.2266H155.133Z" fill="#368EBA"/>
<path d="M167.762 26.8545H165.993V23.5258C165.993 23.0154 166.017 22.2267 166.064 21.1597H165.993L163.711 26.8545H161.074V19.2305H162.823V22.5476C162.823 23.2474 162.8 24.0554 162.753 24.9717H162.823L165.105 19.2343H167.766V26.8584L167.762 26.8545Z" fill="#368EBA"/>
<path d="M175.875 19.2266L173.628 22.9187L176 26.8506H173.953L172.947 25.0335C172.885 24.9253 172.732 24.6314 172.486 24.1404L172.243 23.661H172.22C171.789 24.5232 171.55 24.9833 171.515 25.0451L170.498 26.8506H168.392L170.811 22.9187L168.553 19.2266H170.635L171.574 20.8967C171.676 21.0862 171.883 21.5037 172.2 22.1416H172.235C172.576 21.4573 172.783 21.0437 172.861 20.9083L173.812 19.2266H175.883H175.875Z" fill="#368EBA"/>
<path d="M61.2079 38.7776H59.8342V36.1989C59.8342 35.8045 59.8538 35.1937 59.889 34.3663H59.8342L58.0692 38.7776H56.0264V32.8701H57.3805V35.4372C57.3805 35.9824 57.3609 36.6048 57.3257 37.3162H57.3805L59.1455 32.8701H61.2079V38.7776Z" fill="#368EBA"/>
<path d="M67.3954 32.8701V38.7776H66.0139V36.3574H63.5953V38.7776H62.2139V32.8701H63.5953V35.1898H66.0139V32.8701H67.3954Z" fill="#368EBA"/>
<path d="M72.9915 38.7776H71.6374V36.3497H71.1522L69.528 38.7776H67.8452L70.0133 35.7543L68.0487 32.8701H69.7002L71.16 35.1898H71.6374V32.8701H72.9915V35.1898H73.4651L74.9287 32.8701H76.5763L74.6117 35.7543L76.7838 38.7776H75.097L73.4729 36.3497H72.9915V38.7776Z" fill="#368EBA"/>
<path d="M78.6115 33.9913V35.2865H81.2766V36.253H78.6115V37.6525H81.4801V38.7776H77.23V32.8701H81.4449V33.9913H78.6115Z" fill="#368EBA"/>
<path d="M87.4989 32.8701V38.7776H86.1174V36.3574H83.695V38.7776H82.3135V32.8701H83.695V35.1898H86.1174V32.8701H87.4989Z" fill="#368EBA"/>
<path d="M89.8903 33.9913V35.2865H92.5554V36.253H89.8903V37.6525H92.7589V38.7776H88.5088V32.8701H92.7237V33.9913H89.8903Z" fill="#368EBA"/>
<path d="M93.5923 38.7776V32.8701H95.9678C96.4805 32.8701 96.8053 32.8701 96.9345 32.8779C97.5332 32.9088 97.9637 33.1253 98.2259 33.5351C98.4177 33.8405 98.5116 34.3354 98.5116 35.0158C98.5116 35.8664 98.3433 36.427 98.0107 36.6976C97.7407 36.918 97.4237 37.0301 97.0597 37.0417C97.048 37.0417 96.731 37.0494 96.1087 37.0688H94.9699V38.7776H93.5884H93.5923ZM94.9738 35.8896H96.1204C96.5509 35.8896 96.821 35.8355 96.9345 35.7311C97.048 35.6267 97.1067 35.3715 97.1067 34.9694C97.1067 34.6679 97.0832 34.4552 97.0401 34.3277C96.9971 34.2001 96.9071 34.1112 96.774 34.057C96.6605 34.0145 96.4648 33.9952 96.1831 33.9952H94.9738V35.8896Z" fill="#368EBA"/>
<path d="M104.378 32.8701V38.7776H103.001V36.3574H100.578V38.7776H99.1968V32.8701H100.578V35.1898H103.001V32.8701H104.378Z" fill="#368EBA"/>
<path d="M105.392 32.8701H106.773V34.579H107.912C108.515 34.5906 108.832 34.5983 108.863 34.606C109.473 34.637 109.884 34.8767 110.1 35.3329C110.244 35.6344 110.315 36.0674 110.315 36.6358C110.315 37.1615 110.26 37.5675 110.154 37.8536C110.045 38.1397 109.869 38.3601 109.618 38.5147C109.45 38.6152 109.282 38.6848 109.117 38.7196C108.949 38.7544 108.71 38.7776 108.401 38.7815H105.399V32.874L105.392 32.8701ZM106.773 35.7581V37.6525H107.982C108.303 37.6525 108.522 37.6216 108.636 37.5636C108.738 37.5056 108.808 37.4128 108.847 37.2853C108.886 37.1577 108.906 36.9566 108.906 36.6783C108.906 36.2762 108.847 36.021 108.734 35.9166C108.62 35.8123 108.35 35.7581 107.92 35.7581H106.773ZM112.287 32.8701V38.7776H110.906V32.8701H112.287Z" fill="#368EBA"/>
<path d="M118.573 32.8701L116.835 35.7311L118.675 38.7776H117.09L116.311 37.3703C116.264 37.2891 116.143 37.0572 115.951 36.6783L115.763 36.3071H115.743C115.407 36.976 115.227 37.3317 115.195 37.3781L114.405 38.7776H112.773L114.648 35.7311L112.898 32.8701H114.511L115.238 34.1614C115.317 34.3083 115.477 34.6292 115.724 35.128H115.751C116.013 34.5983 116.174 34.2774 116.236 34.173L116.972 32.8701H118.577H118.573Z" fill="#368EBA"/>
<path d="M126.58 38.7776H125.206V36.1989C125.206 35.8045 125.226 35.1937 125.261 34.3663H125.206L123.441 38.7776H121.398V32.8701H122.753V35.4372C122.753 35.9824 122.733 36.6048 122.698 37.3162H122.753L124.518 32.8701H126.58V38.7776Z" fill="#368EBA"/>
<path d="M127.261 36.6164H128.623V36.8368C128.623 37.1731 128.697 37.3935 128.842 37.5018C128.987 37.6062 129.296 37.6603 129.769 37.6603C130.243 37.6603 130.556 37.61 130.728 37.5095C130.9 37.409 130.986 37.2234 130.986 36.9528C130.986 36.7363 130.924 36.5816 130.803 36.4966C130.681 36.4115 130.462 36.369 130.153 36.369H129.229V35.3058H130.153C130.482 35.3058 130.705 35.2594 130.818 35.1666C130.932 35.0738 130.99 34.8999 130.99 34.6408C130.99 34.3393 130.885 34.146 130.677 34.057C130.552 34.0106 130.255 33.9874 129.789 33.9874C129.288 33.9874 128.975 34.0377 128.857 34.1344C128.736 34.231 128.674 34.4939 128.67 34.9192H127.296C127.308 34.4475 127.331 34.1189 127.366 33.9333C127.402 33.7477 127.476 33.5738 127.589 33.4153C127.813 33.0905 128.161 32.9049 128.638 32.8585C128.885 32.8353 129.304 32.8237 129.895 32.8237C130.748 32.8237 131.35 32.9088 131.695 33.0789C131.953 33.2026 132.137 33.365 132.247 33.566C132.356 33.7671 132.411 34.0338 132.411 34.3625C132.411 34.8109 132.333 35.1396 132.172 35.3445C132.016 35.5494 131.734 35.6963 131.335 35.7775C131.718 35.8548 131.992 35.9901 132.161 36.1911C132.329 36.3883 132.411 36.6744 132.411 37.0456C132.411 37.6062 132.239 38.0392 131.898 38.3369C131.671 38.5379 131.401 38.6694 131.092 38.7351C130.783 38.8008 130.27 38.8317 129.558 38.8317C129.034 38.8317 128.627 38.7931 128.345 38.7196C128.059 38.6462 127.828 38.5147 127.648 38.3253C127.492 38.1667 127.39 37.9812 127.335 37.7763C127.28 37.5714 127.253 37.2466 127.253 36.802V36.6164H127.261Z" fill="#368EBA"/>
<path d="M133.107 32.8701H134.489V34.579H135.628C136.23 34.5906 136.547 34.5983 136.579 34.606C137.189 34.637 137.6 34.8767 137.815 35.3329C137.96 35.6344 138.031 36.0674 138.031 36.6358C138.031 37.1615 137.976 37.5675 137.87 37.8536C137.765 38.1397 137.585 38.3601 137.334 38.5147C137.166 38.6152 136.997 38.6848 136.833 38.7196C136.665 38.7544 136.426 38.7776 136.117 38.7815H133.111V32.874L133.107 32.8701ZM134.489 35.7581V37.6525H135.698C136.019 37.6525 136.238 37.6216 136.352 37.5636C136.454 37.5056 136.524 37.4128 136.563 37.2853C136.602 37.1577 136.622 36.9566 136.622 36.6783C136.622 36.2762 136.563 36.021 136.45 35.9166C136.336 35.8123 136.062 35.7581 135.636 35.7581H134.489ZM140.003 32.8701V38.7776H138.622V32.8701H140.003Z" fill="#368EBA"/>
<path d="M144.59 36.6049H145.952V36.7904C145.952 37.2621 145.921 37.6062 145.858 37.8227C145.795 38.0392 145.67 38.2248 145.486 38.3833C145.259 38.5766 144.981 38.7042 144.653 38.766C144.457 38.8008 144.023 38.8202 143.353 38.8202C142.786 38.8202 142.383 38.7931 142.144 38.739C141.905 38.6849 141.674 38.5727 141.455 38.4026C141.134 38.1475 140.943 37.7879 140.88 37.324C140.825 36.8678 140.798 36.2067 140.798 35.3406C140.798 34.7916 140.837 34.3741 140.915 34.088C140.994 33.8019 141.134 33.5622 141.338 33.3766C141.573 33.1563 141.843 33.0132 142.152 32.9398C142.461 32.8663 142.974 32.8276 143.686 32.8276C144.105 32.8276 144.406 32.8392 144.598 32.8624C144.786 32.8856 144.966 32.9359 145.13 33.0132C145.529 33.1911 145.772 33.5274 145.858 34.0223C145.889 34.1692 145.909 34.4669 145.921 34.9154H144.547C144.539 34.5906 144.508 34.3741 144.449 34.2697C144.39 34.1692 144.293 34.0996 144.152 34.0609C144.015 34.0223 143.788 34.0029 143.471 34.0029C142.935 34.0029 142.59 34.0764 142.442 34.2233C142.348 34.3238 142.285 34.4669 142.262 34.6525C142.238 34.838 142.226 35.244 142.226 35.8703C142.226 36.3768 142.238 36.7208 142.258 36.8948C142.277 37.0688 142.32 37.2157 142.387 37.3317C142.453 37.4516 142.563 37.5327 142.719 37.5791C142.876 37.6255 143.111 37.6487 143.428 37.6487C143.823 37.6487 144.101 37.6178 144.261 37.5521C144.422 37.4863 144.524 37.3626 144.567 37.1809C144.586 37.1113 144.594 36.918 144.594 36.6049H144.59Z" fill="#368EBA"/>
<path d="M148.026 32.8701V35.1898H148.535L150.296 32.8701H151.971L149.713 35.7543L152.178 38.7776H150.464L148.547 36.3497H148.026V38.7776H146.645V32.8701H148.026Z" fill="#368EBA"/>
<path d="M156.213 37.7028H153.853L153.521 38.7737H152.084L153.975 32.8662H156.045L157.963 38.7737H156.546L156.205 37.7028H156.213ZM155.928 36.7014L155.039 33.8946L154.163 36.7014H155.928Z" fill="#368EBA"/>
<path d="M163.618 32.8701V38.7776H162.236V36.3574H159.818V38.7776H158.436V32.8701H159.818V35.1898H162.236V32.8701H163.618Z" fill="#368EBA"/>
<path d="M169.813 38.7776H168.439V36.1989C168.439 35.8045 168.459 35.1937 168.494 34.3663H168.439L166.674 38.7776H164.631V32.8701H165.985V35.4372C165.985 35.9824 165.966 36.6048 165.931 37.3162H165.985L167.75 32.8701H169.813V38.7776Z" fill="#368EBA"/>
<path d="M172.09 31.2383H172.806C172.818 31.4818 172.873 31.6442 172.971 31.7293C173.069 31.8143 173.256 31.8569 173.53 31.8569C173.804 31.8569 174 31.8182 174.09 31.737C174.184 31.6558 174.235 31.4896 174.247 31.2383H174.975C174.928 31.71 174.806 32.027 174.611 32.1855C174.415 32.344 174.055 32.4252 173.53 32.4252C173.006 32.4252 172.638 32.344 172.446 32.1855C172.255 32.027 172.137 31.71 172.086 31.2383H172.09ZM176 38.7773H174.626V36.1986C174.626 35.8042 174.646 35.1934 174.681 34.366H174.626L172.861 38.7773H170.818V32.8698H172.172V35.4369C172.172 35.982 172.153 36.6045 172.118 37.3159H172.172L173.937 32.8698H176V38.7773Z" fill="#368EBA"/>
</g>
<defs>
<clipPath id="clip0_335_2919">
<rect width="176" height="58" fill="white"/>
</clipPath>
</defs>
</svg>
