<svg width="176" height="58" viewBox="0 0 176 58" fill="none" xmlns="http://www.w3.org/2000/svg">
<g clip-path="url(#clip0_335_1085)">
<path fill-rule="evenodd" clip-rule="evenodd" d="M50.8448 43.4981V14.4981L25.4224 0L0 14.4981V43.4981L25.4224 57.9961L50.8448 43.4981ZM25.4224 55.3672L2.30508 42.1836V15.8164L25.4224 2.62898L48.5397 15.8126V42.1836L25.4224 55.3672Z" fill="#368EBA"/>
<path fill-rule="evenodd" clip-rule="evenodd" d="M4.61036 23.6415V40.8729L15.0165 46.8075L16.0575 46.1077L14.8521 43.3744L15.0439 38.9283L18.7735 35.816L30.9955 34.2928L33.2458 31.4318L32.9249 30.098L27.9077 26.7924L27.1993 24.3761L20.7694 20.9468L20.382 19.296L18.7735 18.1516L17.0359 19.6748L16.9224 22.4043L16.2258 20.738L11.5686 20.8811L4.60645 23.6415H4.61036ZM16.5976 47.3294L16.4097 47.6001L16.8206 47.832L16.5976 47.3256V47.3294ZM24.5303 26.3208L27.1211 26.5334L25.1056 24.898L24.5303 26.3169V26.3208Z" fill="white"/>
<path fill-rule="evenodd" clip-rule="evenodd" d="M33.3435 24.3452C32.8309 20.4519 32.416 20.0421 28.4751 19.5357C32.416 19.0292 32.8309 18.6194 33.3435 14.7262C33.8562 18.6194 34.2711 19.0292 38.212 19.5357C34.2711 20.0421 33.8562 20.4519 33.3435 24.3452Z" fill="white"/>
<path fill-rule="evenodd" clip-rule="evenodd" d="M8.6332 39.4811C8.36316 37.4321 8.144 37.2156 6.06982 36.9488C8.144 36.682 8.36316 36.4655 8.6332 34.4165C8.90323 36.4655 9.12239 36.682 11.1966 36.9488C9.12239 37.2156 8.90323 37.4321 8.6332 39.4811Z" fill="#1EA8CA"/>
<path d="M61.8693 26.8543H56.0264V19.2264H57.807V25.3426H60.934V19.2264H62.7146V25.3426H63.6539V28.3737H61.8693V26.8543Z" fill="#368EBA"/>
<path d="M66.0844 20.68V22.3502H69.5205V23.5951H66.0844V25.4006H69.7866V26.8543H64.2998V19.2264H69.7396V20.68H66.0844Z" fill="#368EBA"/>
<path d="M77.551 19.2264V26.8543H75.7704V23.7304H72.6435V26.8543H70.8628V19.2264H72.6435V22.2226H75.7704V19.2264H77.551Z" fill="#368EBA"/>
<path d="M82.1454 20.7496V26.8543H80.3647V20.7496H78.2788V19.2264H84.3331V20.7496H82.1454Z" fill="#368EBA"/>
<path d="M85.061 26.8543V19.2302H88.1293C88.7946 19.2302 89.2094 19.2302 89.3777 19.2418C90.1486 19.2805 90.7044 19.5627 91.0448 20.0885C91.2914 20.4867 91.4166 21.1208 91.4166 21.9984C91.4166 23.0964 91.2014 23.8194 90.767 24.1712C90.4187 24.4534 90.0117 24.6003 89.542 24.6158C89.5264 24.6158 89.1194 24.6274 88.3171 24.6506H86.8456V26.8582H85.0649L85.061 26.8543ZM86.8417 23.1273H88.3249C88.8807 23.1273 89.2329 23.0577 89.3777 22.9224C89.5225 22.7871 89.5968 22.4585 89.5968 21.9404C89.5968 21.5499 89.5694 21.2754 89.5107 21.1131C89.452 20.9507 89.3385 20.8347 89.1703 20.7651C89.0255 20.711 88.7672 20.6839 88.4071 20.6839H86.8456V23.1312L86.8417 23.1273Z" fill="#368EBA"/>
<path d="M99.819 25.4702H96.7743L96.3477 26.8543H94.4966L96.9386 19.2302H99.6116L102.089 26.8543H100.261L99.8229 25.4702H99.819ZM99.4472 24.1789L98.3005 20.5563L97.1656 24.1789H99.4472Z" fill="#368EBA"/>
<path d="M102.688 26.8543V19.2302H105.756C106.421 19.2302 106.836 19.2302 107.004 19.2418C107.775 19.2805 108.331 19.5627 108.671 20.0885C108.918 20.4867 109.043 21.1208 109.043 21.9984C109.043 23.0964 108.828 23.8194 108.393 24.1712C108.045 24.4534 107.638 24.6003 107.169 24.6158C107.153 24.6158 106.746 24.6274 105.944 24.6506H104.472V26.8582H102.691L102.688 26.8543ZM104.468 23.1273H105.951C106.507 23.1273 106.859 23.0577 107.004 22.9224C107.149 22.7871 107.223 22.4585 107.223 21.9404C107.223 21.5499 107.196 21.2754 107.137 21.1131C107.078 20.9507 106.965 20.8347 106.797 20.7651C106.652 20.711 106.398 20.6839 106.034 20.6839H104.472V23.1312L104.468 23.1273Z" fill="#368EBA"/>
<path d="M111.701 19.2264V22.2226H112.362L114.632 19.2264H116.796L113.877 22.9533L117.062 26.8543H114.851L112.374 23.7227H111.701V26.8543H109.92V19.2264H111.701Z" fill="#368EBA"/>
<path d="M120.925 20.7496V26.8543H119.144V20.7496H117.062V19.2264H123.112V20.7496H120.925Z" fill="#368EBA"/>
<path d="M130.532 26.8543H128.764V23.5255C128.764 23.0152 128.787 22.2265 128.834 21.1594H128.764L126.482 26.8543H123.844V19.2302H125.594V22.5474C125.594 23.2472 125.57 24.0552 125.523 24.9715H125.594L127.875 19.2341H130.536V26.8582L130.532 26.8543Z" fill="#368EBA"/>
<path d="M136.434 26.8543V24.3181C136.07 24.7975 135.378 25.0372 134.352 25.0372C133.209 25.0372 132.431 24.7627 132.016 24.2137C131.808 23.9315 131.687 23.5526 131.656 23.0809C131.648 22.9959 131.644 22.7755 131.644 22.4159V19.2264H133.425V22.4159C133.425 22.8644 133.519 23.1621 133.706 23.309C133.894 23.4521 134.29 23.5255 134.892 23.5255C135.534 23.5255 135.949 23.4521 136.141 23.309C136.332 23.166 136.43 22.849 136.43 22.3618V19.2302H138.211V26.8543H136.43H136.434Z" fill="#368EBA"/>
<path d="M141.295 20.68V22.3502H144.731V23.5951H141.295V25.4006H144.997V26.8543H139.51V19.2264H144.95V20.68H141.295Z" fill="#368EBA"/>
<path d="M150.703 24.0513H152.46V24.291C152.46 24.9019 152.421 25.3465 152.339 25.621C152.257 25.8993 152.096 26.1429 151.857 26.3478C151.564 26.5991 151.204 26.7615 150.781 26.8388C150.527 26.8852 149.967 26.9084 149.102 26.9084C148.371 26.9084 147.85 26.8736 147.541 26.804C147.232 26.7344 146.934 26.5914 146.649 26.371C146.234 26.0424 145.983 25.5785 145.909 24.9753C145.838 24.3877 145.803 23.5333 145.803 22.4159C145.803 21.7084 145.854 21.1672 145.952 20.7999C146.054 20.4287 146.234 20.1233 146.496 19.8797C146.797 19.5975 147.149 19.4081 147.549 19.3153C147.952 19.2186 148.609 19.1722 149.529 19.1722C150.069 19.1722 150.46 19.1877 150.703 19.2186C150.946 19.2496 151.177 19.3153 151.392 19.4119C151.908 19.64 152.221 20.0769 152.331 20.7148C152.37 20.9043 152.398 21.2909 152.413 21.8708H150.644C150.636 21.4533 150.593 21.1749 150.515 21.0357C150.437 20.9043 150.312 20.8154 150.132 20.7651C149.955 20.7148 149.662 20.6916 149.251 20.6916C148.558 20.6916 148.112 20.7883 147.92 20.9777C147.795 21.1092 147.721 21.2909 147.69 21.5306C147.658 21.7703 147.643 22.2961 147.643 23.1041C147.643 23.7614 147.654 24.1982 147.682 24.4263C147.709 24.6506 147.764 24.84 147.85 24.9908C147.936 25.1416 148.077 25.2498 148.277 25.3117C148.476 25.3735 148.781 25.4045 149.192 25.4045C149.701 25.4045 150.061 25.3619 150.269 25.2769C150.476 25.1918 150.609 25.0333 150.664 24.7975C150.687 24.7047 150.699 24.4573 150.699 24.0552L150.703 24.0513Z" fill="#368EBA"/>
<path d="M155.133 19.2264V22.2226H155.795L158.064 19.2264H160.229L157.309 22.9533L160.495 26.8543H158.284L155.806 23.7227H155.133V26.8543H153.353V19.2264H155.133Z" fill="#368EBA"/>
<path d="M167.762 26.8543H165.993V23.5255C165.993 23.0152 166.017 22.2265 166.064 21.1594H165.993L163.711 26.8543H161.074V19.2302H162.823V22.5474C162.823 23.2472 162.8 24.0552 162.753 24.9715H162.823L165.105 19.2341H167.766V26.8582L167.762 26.8543Z" fill="#368EBA"/>
<path d="M175.875 19.2264L173.628 22.9185L176 26.8504H173.953L172.947 25.0333C172.885 24.9251 172.732 24.6313 172.486 24.1402L172.243 23.6608H172.22C171.789 24.523 171.55 24.9831 171.515 25.0449L170.498 26.8504H168.392L170.811 22.9185L168.553 19.2264H170.635L171.574 20.8965C171.676 21.086 171.883 21.5035 172.2 22.1414H172.235C172.576 21.4571 172.783 21.0435 172.861 20.9081L173.812 19.2264H175.883H175.875Z" fill="#368EBA"/>
<path d="M61.2079 38.7775H59.8342V36.1988C59.8342 35.8044 59.8538 35.1936 59.889 34.3662H59.8342L58.0692 38.7775H56.0264V32.87H57.3805V35.4371C57.3805 35.9823 57.3609 36.6047 57.3257 37.3161H57.3805L59.1455 32.87H61.2079V38.7775Z" fill="#368EBA"/>
<path d="M67.3954 32.87V38.7775H66.0139V36.3573H63.5953V38.7775H62.2139V32.87H63.5953V35.1897H66.0139V32.87H67.3954Z" fill="#368EBA"/>
<path d="M72.9915 38.7775H71.6374V36.3495H71.1522L69.528 38.7775H67.8452L70.0133 35.7542L68.0487 32.87H69.7002L71.16 35.1897H71.6374V32.87H72.9915V35.1897H73.4651L74.9287 32.87H76.5763L74.6117 35.7542L76.7838 38.7775H75.097L73.4729 36.3495H72.9915V38.7775Z" fill="#368EBA"/>
<path d="M78.6115 33.9912V35.2864H81.2766V36.2529H78.6115V37.6524H81.4801V38.7775H77.23V32.87H81.4449V33.9912H78.6115Z" fill="#368EBA"/>
<path d="M87.4989 32.87V38.7775H86.1174V36.3573H83.695V38.7775H82.3135V32.87H83.695V35.1897H86.1174V32.87H87.4989Z" fill="#368EBA"/>
<path d="M89.8903 33.9912V35.2864H92.5554V36.2529H89.8903V37.6524H92.7589V38.7775H88.5088V32.87H92.7237V33.9912H89.8903Z" fill="#368EBA"/>
<path d="M93.5923 38.7775V32.87H95.9678C96.4805 32.87 96.8053 32.87 96.9345 32.8777C97.5332 32.9087 97.9637 33.1252 98.2259 33.535C98.4177 33.8404 98.5116 34.3353 98.5116 35.0157C98.5116 35.8663 98.3433 36.4269 98.0107 36.6975C97.7407 36.9179 97.4237 37.03 97.0597 37.0416C97.048 37.0416 96.731 37.0493 96.1087 37.0687H94.9699V38.7775H93.5884H93.5923ZM94.9738 35.8895H96.1204C96.5509 35.8895 96.821 35.8353 96.9345 35.731C97.048 35.6266 97.1067 35.3714 97.1067 34.9693C97.1067 34.6678 97.0832 34.4551 97.0401 34.3276C96.9971 34.2 96.9071 34.111 96.774 34.0569C96.6605 34.0144 96.4648 33.9951 96.1831 33.9951H94.9738V35.8895Z" fill="#368EBA"/>
<path d="M104.378 32.87V38.7775H103.001V36.3573H100.578V38.7775H99.1968V32.87H100.578V35.1897H103.001V32.87H104.378Z" fill="#368EBA"/>
<path d="M105.392 32.87H106.773V34.5789H107.912C108.515 34.5904 108.832 34.5982 108.863 34.6059C109.473 34.6368 109.884 34.8765 110.1 35.3327C110.244 35.6343 110.315 36.0673 110.315 36.6356C110.315 37.1614 110.26 37.5674 110.154 37.8535C110.045 38.1396 109.869 38.3599 109.618 38.5146C109.45 38.6151 109.282 38.6847 109.117 38.7195C108.949 38.7543 108.71 38.7775 108.401 38.7814H105.399V32.8739L105.392 32.87ZM106.773 35.758V37.6524H107.982C108.303 37.6524 108.522 37.6215 108.636 37.5635C108.738 37.5055 108.808 37.4127 108.847 37.2852C108.886 37.1576 108.906 36.9565 108.906 36.6782C108.906 36.2761 108.847 36.0209 108.734 35.9165C108.62 35.8122 108.35 35.758 107.92 35.758H106.773ZM112.287 32.87V38.7775H110.906V32.87H112.287Z" fill="#368EBA"/>
<path d="M118.573 32.87L116.835 35.731L118.675 38.7775H117.09L116.311 37.3702C116.264 37.289 116.143 37.0571 115.951 36.6782L115.763 36.307H115.743C115.407 36.9759 115.227 37.3316 115.195 37.3779L114.405 38.7775H112.773L114.648 35.731L112.898 32.87H114.511L115.238 34.1613C115.317 34.3082 115.477 34.6291 115.724 35.1278H115.751C116.013 34.5982 116.174 34.2773 116.236 34.1729L116.972 32.87H118.577H118.573Z" fill="#368EBA"/>
<path d="M126.58 38.7775H125.206V36.1988C125.206 35.8044 125.226 35.1936 125.261 34.3662H125.206L123.441 38.7775H121.398V32.87H122.753V35.4371C122.753 35.9823 122.733 36.6047 122.698 37.3161H122.753L124.518 32.87H126.58V38.7775Z" fill="#368EBA"/>
<path d="M127.261 36.6163H128.623V36.8367C128.623 37.173 128.697 37.3934 128.842 37.5017C128.987 37.6061 129.296 37.6602 129.769 37.6602C130.243 37.6602 130.556 37.6099 130.728 37.5094C130.9 37.4089 130.986 37.2233 130.986 36.9527C130.986 36.7362 130.924 36.5815 130.803 36.4965C130.681 36.4114 130.462 36.3689 130.153 36.3689H129.229V35.3057H130.153C130.482 35.3057 130.705 35.2593 130.818 35.1665C130.932 35.0737 130.99 34.8997 130.99 34.6407C130.99 34.3392 130.885 34.1458 130.677 34.0569C130.552 34.0105 130.255 33.9873 129.789 33.9873C129.288 33.9873 128.975 34.0376 128.857 34.1342C128.736 34.2309 128.674 34.4938 128.67 34.9191H127.296C127.308 34.4474 127.331 34.1188 127.366 33.9332C127.402 33.7476 127.476 33.5737 127.589 33.4151C127.813 33.0904 128.161 32.9048 128.638 32.8584C128.885 32.8352 129.304 32.8236 129.895 32.8236C130.748 32.8236 131.35 32.9087 131.695 33.0788C131.953 33.2025 132.137 33.3649 132.247 33.5659C132.356 33.767 132.411 34.0337 132.411 34.3624C132.411 34.8108 132.333 35.1394 132.172 35.3444C132.016 35.5493 131.734 35.6962 131.335 35.7774C131.718 35.8547 131.992 35.99 132.161 36.191C132.329 36.3882 132.411 36.6743 132.411 37.0455C132.411 37.6061 132.239 38.0391 131.898 38.3368C131.671 38.5378 131.401 38.6692 131.092 38.735C130.783 38.8007 130.27 38.8316 129.558 38.8316C129.034 38.8316 128.627 38.793 128.345 38.7195C128.059 38.646 127.828 38.5146 127.648 38.3252C127.492 38.1666 127.39 37.9811 127.335 37.7762C127.28 37.5713 127.253 37.2465 127.253 36.8019V36.6163H127.261Z" fill="#368EBA"/>
<path d="M133.107 32.87H134.489V34.5789H135.628C136.23 34.5904 136.547 34.5982 136.579 34.6059C137.189 34.6368 137.6 34.8765 137.815 35.3327C137.96 35.6343 138.031 36.0673 138.031 36.6356C138.031 37.1614 137.976 37.5674 137.87 37.8535C137.765 38.1396 137.585 38.3599 137.334 38.5146C137.166 38.6151 136.997 38.6847 136.833 38.7195C136.665 38.7543 136.426 38.7775 136.117 38.7814H133.111V32.8739L133.107 32.87ZM134.489 35.758V37.6524H135.698C136.019 37.6524 136.238 37.6215 136.352 37.5635C136.454 37.5055 136.524 37.4127 136.563 37.2852C136.602 37.1576 136.622 36.9565 136.622 36.6782C136.622 36.2761 136.563 36.0209 136.45 35.9165C136.336 35.8122 136.062 35.758 135.636 35.758H134.489ZM140.003 32.87V38.7775H138.622V32.87H140.003Z" fill="#368EBA"/>
<path d="M144.59 36.6047H145.952V36.7903C145.952 37.262 145.921 37.6061 145.858 37.8226C145.795 38.0391 145.67 38.2246 145.486 38.3831C145.259 38.5765 144.981 38.704 144.653 38.7659C144.457 38.8007 144.023 38.82 143.353 38.82C142.786 38.82 142.383 38.793 142.144 38.7388C141.905 38.6847 141.674 38.5726 141.455 38.4025C141.134 38.1473 140.943 37.7878 140.88 37.3238C140.825 36.8676 140.798 36.2065 140.798 35.3405C140.798 34.7915 140.837 34.374 140.915 34.0879C140.994 33.8018 141.134 33.5621 141.338 33.3765C141.573 33.1561 141.843 33.0131 142.152 32.9396C142.461 32.8662 142.974 32.8275 143.686 32.8275C144.105 32.8275 144.406 32.8391 144.598 32.8623C144.786 32.8855 144.966 32.9357 145.13 33.0131C145.529 33.1909 145.772 33.5273 145.858 34.0221C145.889 34.169 145.909 34.4667 145.921 34.9152H144.547C144.539 34.5905 144.508 34.374 144.449 34.2696C144.39 34.169 144.293 34.0995 144.152 34.0608C144.015 34.0221 143.788 34.0028 143.471 34.0028C142.935 34.0028 142.59 34.0763 142.442 34.2232C142.348 34.3237 142.285 34.4667 142.262 34.6523C142.238 34.8379 142.226 35.2438 142.226 35.8702C142.226 36.3766 142.238 36.7207 142.258 36.8947C142.277 37.0687 142.32 37.2156 142.387 37.3316C142.453 37.4514 142.563 37.5326 142.719 37.579C142.876 37.6254 143.111 37.6486 143.428 37.6486C143.823 37.6486 144.101 37.6177 144.261 37.5519C144.422 37.4862 144.524 37.3625 144.567 37.1808C144.586 37.1112 144.594 36.9179 144.594 36.6047H144.59Z" fill="#368EBA"/>
<path d="M148.026 32.87V35.1897H148.535L150.296 32.87H151.971L149.713 35.7542L152.178 38.7775H150.464L148.547 36.3495H148.026V38.7775H146.645V32.87H148.026Z" fill="#368EBA"/>
<path d="M156.213 37.7027H153.853L153.521 38.7736H152.084L153.975 32.8661H156.045L157.963 38.7736H156.546L156.205 37.7027H156.213ZM155.928 36.7014L155.039 33.8945L154.163 36.7014H155.928Z" fill="#368EBA"/>
<path d="M163.618 32.87V38.7775H162.236V36.3573H159.818V38.7775H158.436V32.87H159.818V35.1897H162.236V32.87H163.618Z" fill="#368EBA"/>
<path d="M169.813 38.7775H168.439V36.1988C168.439 35.8044 168.459 35.1936 168.494 34.3662H168.439L166.674 38.7775H164.631V32.87H165.985V35.4371C165.985 35.9823 165.966 36.6047 165.931 37.3161H165.985L167.75 32.87H169.813V38.7775Z" fill="#368EBA"/>
<path d="M172.09 31.2385H172.806C172.818 31.4821 172.873 31.6444 172.971 31.7295C173.069 31.8146 173.256 31.8571 173.53 31.8571C173.804 31.8571 174 31.8184 174.09 31.7372C174.184 31.656 174.235 31.4898 174.247 31.2385H174.975C174.928 31.7102 174.806 32.0272 174.611 32.1857C174.415 32.3442 174.055 32.4254 173.53 32.4254C173.006 32.4254 172.638 32.3442 172.446 32.1857C172.255 32.0272 172.137 31.7102 172.086 31.2385H172.09ZM176 38.7775H174.626V36.1988C174.626 35.8044 174.646 35.1936 174.681 34.3662H174.626L172.861 38.7775H170.818V32.87H172.172V35.4371C172.172 35.9823 172.153 36.6047 172.118 37.3161H172.172L173.937 32.87H176V38.7775Z" fill="#368EBA"/>
</g>
<defs>
<clipPath id="clip0_335_1085">
<rect width="176" height="58" fill="white"/>
</clipPath>
</defs>
</svg>
